<svg width="18" height="18" viewBox="0 0 18 18" fill="none" xmlns="http://www.w3.org/2000/svg">
<path d="M15.2477 3.16695C14.0825 2.62179 12.8367 2.2256 11.5342 2C11.3742 2.28921 11.1873 2.6782 11.0585 2.98764C9.67387 2.77941 8.30201 2.77941 6.94287 2.98764C6.81404 2.6782 6.62292 2.28921 6.46152 2C5.1576 2.2256 3.91032 2.62325 2.74514 3.16984C0.394982 6.72124 -0.242108 10.1844 0.0764375 13.5984C1.63519 14.7625 3.14581 15.4696 4.63093 15.9323C4.99762 15.4277 5.32465 14.8912 5.60638 14.3258C5.06981 14.1219 4.5559 13.8703 4.07031 13.5782C4.19913 13.4828 4.32514 13.383 4.44689 13.2803C7.40865 14.6656 10.6267 14.6656 13.5531 13.2803C13.6762 13.383 13.8022 13.4828 13.9296 13.5782C13.4426 13.8717 12.9273 14.1233 12.3907 14.3273C12.6724 14.8912 12.9981 15.4291 13.3662 15.9337C14.8527 15.471 16.3647 14.7639 17.9235 13.5984C18.2973 9.64073 17.285 6.20934 15.2477 3.16695ZM6.00988 11.4989C5.12079 11.4989 4.39166 10.6688 4.39166 9.65808C4.39166 8.64732 5.10522 7.81587 6.00988 7.81587C6.91457 7.81587 7.64367 8.64586 7.6281 9.65808C7.62951 10.6688 6.91457 11.4989 6.00988 11.4989ZM11.9901 11.4989C11.101 11.4989 10.3718 10.6688 10.3718 9.65808C10.3718 8.64732 11.0854 7.81587 11.9901 7.81587C12.8947 7.81587 13.6238 8.64586 13.6083 9.65808C13.6083 10.6688 12.8947 11.4989 11.9901 11.4989Z" fill="#8B8B8E"/>
</svg>
