<svg width="18" height="18" viewBox="0 0 18 18" fill="none" xmlns="http://www.w3.org/2000/svg">
<g clip-path="url(#clip0_146_1007)">
<path fill-rule="evenodd" clip-rule="evenodd" d="M9.00002 0C4.0275 0 0 4.12938 0 9.22766C0 13.3109 2.57625 16.7598 6.15376 17.9824C6.60376 18.0631 6.77251 17.7863 6.77251 17.5441C6.77251 17.325 6.76126 16.5982 6.76126 15.8255C4.50001 16.2522 3.91501 15.2602 3.73501 14.7412C3.63376 14.4759 3.19501 13.6569 2.8125 13.4378C2.49751 13.2648 2.0475 12.838 2.80126 12.8264C3.51001 12.8149 4.01626 13.4955 4.18501 13.7723C4.99501 15.168 6.28876 14.7758 6.80626 14.5336C6.88502 13.9337 7.12127 13.53 7.38001 13.2994C5.37751 13.0687 3.285 12.2728 3.285 8.74321C3.285 7.7397 3.63376 6.90921 4.20751 6.26327C4.11751 6.03258 3.80251 5.08675 4.29751 3.81794C4.29751 3.81794 5.05126 3.57572 6.77251 4.76378C7.49252 4.55616 8.25752 4.45235 9.02251 4.45235C9.78752 4.45235 10.5526 4.55616 11.2725 4.76378C12.9938 3.56419 13.7475 3.81794 13.7475 3.81794C14.2425 5.08675 13.9276 6.03258 13.8375 6.26327C14.4113 6.90921 14.76 7.72817 14.76 8.74321C14.76 12.2844 12.6563 13.0687 10.6538 13.2994C10.98 13.5877 11.2613 14.1414 11.2613 15.0065C11.2613 16.2406 11.25 17.2326 11.25 17.5441C11.25 17.7863 11.4187 18.0747 11.8688 17.9824C13.6554 17.3639 15.2079 16.1866 16.3078 14.6161C17.4077 13.0457 17.9995 11.1611 18 9.22766C18 4.12938 13.9725 0 9.00002 0Z" fill="#8B8B8E"/>
</g>
<defs>
<clipPath id="clip0_146_1007">
<rect width="18" height="18" fill="white"/>
</clipPath>
</defs>
</svg>
