<svg width="18" height="18" viewBox="0 0 18 18" fill="none" xmlns="http://www.w3.org/2000/svg">
<g clip-path="url(#clip0_141_737)">
<path fill-rule="evenodd" clip-rule="evenodd" d="M16.0322 3.37636C16.8072 3.5838 17.4162 4.19279 17.6236 4.96773C17.9985 6.37092 18 9.30029 18 9.30029C18 9.30029 18 12.2297 17.6236 13.6329C17.4162 14.4078 16.8072 15.0168 16.0322 15.2242C14.6291 15.6006 8.99997 15.6006 8.99997 15.6006C8.99997 15.6006 3.37092 15.6006 1.96773 15.2242C1.19279 15.0168 0.5838 14.4078 0.376358 13.6329C0 12.2297 0 9.30029 0 9.30029C0 9.30029 0 6.37092 0.376358 4.96773C0.5838 4.19279 1.19279 3.5838 1.96773 3.37636C3.37092 3 8.99997 3 8.99997 3C8.99997 3 14.6291 3 16.0322 3.37636ZM11.8747 9.30057L7.19835 12.0002V6.60085L11.8747 9.30057Z" fill="#8B8B8E"/>
</g>
<defs>
<clipPath id="clip0_141_737">
<rect width="18" height="12.6006" fill="white" transform="translate(0 3)"/>
</clipPath>
</defs>
</svg>
